<?xml version="1.0" standalone="no"?>
<!DOCTYPE svg PUBLIC "-//W3C//DTD SVG 20010904//EN"
 "http://www.w3.org/TR/2001/REC-SVG-20010904/DTD/svg10.dtd">
<svg version="1.0" xmlns="http://www.w3.org/2000/svg"
 width="1024.000000pt" height="1024.000000pt" viewBox="0 0 1024.000000 1024.000000"
 preserveAspectRatio="xMidYMid meet">
<metadata>
Created by potrace 1.14, written by Peter Selinger 2001-2017
</metadata>
<g transform="translate(0.000000,1024.000000) scale(0.100000,-0.100000)"
fill="#000000" stroke="none">
<path d="M5118 9345 c-2 -1 -97 -5 -213 -9 -205 -7 -258 -10 -360 -20 -27 -3
-77 -8 -110 -11 -33 -3 -71 -8 -85 -10 -14 -2 -45 -7 -70 -10 -37 -5 -200 -31
-310 -50 -277 -48 -784 -203 -1037 -316 -24 -10 -45 -19 -48 -19 -2 0 -73 -33
-157 -73 -503 -242 -956 -560 -1343 -943 -433 -430 -712 -858 -895 -1376 -58
-165 -127 -456 -145 -613 -4 -32 -8 -66 -10 -75 -24 -126 -24 -590 -1 -770 2
-14 7 -52 10 -85 4 -33 9 -67 11 -75 3 -8 7 -31 10 -50 52 -329 197 -722 395
-1068 56 -99 215 -327 310 -447 95 -119 109 -135 197 -228 l45 -48 -38 -92
c-46 -113 -180 -377 -259 -512 -65 -112 -236 -376 -269 -416 -11 -15 -30 -39
-41 -55 -21 -30 -117 -145 -144 -174 -31 -32 -152 -169 -172 -194 -65 -83 -95
-227 -69 -337 17 -77 72 -187 119 -240 45 -52 134 -103 206 -119 45 -10 287
-14 360 -5 17 2 68 6 115 10 118 8 163 13 250 26 41 6 91 13 110 16 230 33
587 133 860 240 324 128 652 302 952 504 48 33 92 59 98 59 6 0 69 -16 138
-36 70 -20 136 -38 147 -40 11 -3 39 -9 63 -14 23 -6 63 -14 88 -20 25 -5 62
-14 83 -19 20 -6 56 -13 81 -16 24 -4 47 -8 51 -10 3 -2 52 -11 110 -20 57 -9
115 -18 129 -21 23 -3 130 -17 235 -29 299 -35 916 -41 1200 -11 17 2 62 6
100 10 233 23 581 86 830 152 72 19 135 36 140 37 128 33 453 152 645 237 347
152 730 383 1030 619 291 229 573 505 777 762 250 315 461 708 577 1076 23 76
63 222 72 268 36 185 37 189 49 295 4 30 9 66 11 80 7 43 18 261 18 355 0 283
-38 599 -99 828 -8 31 -22 82 -30 113 -75 286 -271 696 -459 959 -66 93 -127
175 -148 200 -9 11 -49 58 -88 105 -240 285 -586 591 -940 832 -644 439 -1416
731 -2200 833 -25 3 -56 8 -70 10 -14 2 -50 6 -80 9 -30 3 -82 8 -115 11 -125
12 -186 15 -380 21 -110 3 -208 7 -217 8 -9 2 -18 3 -20 1z m382 -919 c124 -9
217 -17 250 -22 19 -2 53 -7 75 -9 90 -11 251 -37 307 -50 13 -2 35 -7 51 -9
15 -3 35 -7 45 -10 9 -3 28 -7 42 -10 14 -2 54 -12 90 -21 36 -9 76 -19 90
-22 32 -6 396 -126 441 -145 19 -8 70 -30 114 -48 87 -36 328 -154 403 -196
95 -55 295 -180 350 -221 31 -23 75 -54 96 -70 222 -159 510 -433 668 -638 5
-5 22 -28 40 -50 123 -158 295 -477 363 -675 38 -111 91 -317 100 -391 3 -24
7 -55 10 -69 19 -89 26 -465 13 -595 -50 -463 -212 -871 -491 -1238 -119 -158
-296 -348 -433 -467 -187 -163 -441 -349 -605 -444 -351 -204 -637 -328 -992
-432 -105 -30 -298 -78 -364 -90 -13 -2 -35 -6 -50 -9 -46 -9 -66 -13 -118
-21 -27 -4 -57 -9 -65 -10 -8 -2 -58 -8 -110 -14 -52 -6 -106 -13 -120 -15
-30 -4 -143 -13 -265 -21 -117 -7 -466 -7 -575 0 -161 11 -343 29 -410 41 -14
2 -43 7 -65 10 -23 3 -52 8 -65 10 -14 3 -38 8 -55 10 -197 35 -385 83 -775
201 l-256 76 -119 -77 c-192 -124 -358 -236 -380 -255 -11 -10 -33 -25 -50
-34 -16 -10 -57 -35 -90 -56 -143 -93 -395 -225 -555 -290 -30 -12 -64 -26
-75 -31 -11 -5 -55 -22 -98 -38 -91 -35 -91 -43 -6 112 94 173 202 399 272
567 36 87 208 566 211 586 0 5 -34 49 -78 97 -43 48 -86 95 -95 106 -9 11 -41
46 -71 78 -316 341 -446 510 -582 753 -122 219 -220 484 -257 695 -6 33 -13
74 -16 90 -2 17 -7 57 -11 90 -3 33 -8 71 -10 85 -6 34 -5 313 1 375 18 181
23 213 51 339 33 147 58 229 111 366 176 447 493 848 968 1222 194 154 500
342 749 462 376 181 869 328 1281 382 28 3 58 8 67 9 9 2 45 6 80 10 35 3 81
8 103 10 22 2 94 7 160 10 66 4 121 8 123 10 4 3 513 -4 582 -9z"/>
</g>
</svg>
